<svg width="30" height="26" viewBox="0 0 30 26" fill="none" xmlns="http://www.w3.org/2000/svg">
<g clip-path="url(#clip0_4_51)">
<path d="M6.20683 5.37899C5.55678 5.37778 4.923 5.55512 4.39648 5.88554C4.43686 5.9043 4.47352 5.92851 4.50511 5.95726L14.8292 14.9049L15.4551 15.4473C16.0609 15.9717 17.0424 15.9717 17.6482 15.4473L18.2741 14.9049L28.5982 5.95726C28.6298 5.92851 28.6665 5.9043 28.7068 5.88554C28.1803 5.55512 27.5465 5.37778 26.8965 5.37899H6.20683Z" fill="white"/>
<path d="M3.77068 6.59421C3.7375 6.56684 3.70956 6.53506 3.68792 6.50008C3.30666 6.95639 3.10204 7.50566 3.10343 8.06904V22.4139C3.1001 22.9706 3.30117 23.5138 3.67757 23.9649C3.69877 23.9322 3.72486 23.902 3.75516 23.8752L13.7276 15.2235L3.77068 6.59421Z" fill="white"/>
<path d="M18.6413 15.8604L18.3827 16.0846C17.3696 16.9571 15.7337 16.9571 14.7206 16.0846L14.462 15.8604L4.4844 24.5077C4.45272 24.5383 4.41394 24.5627 4.37061 24.5794C4.90091 24.9221 5.54533 25.1061 6.20681 25.1039H26.8965C27.5579 25.1061 28.2024 24.9221 28.7327 24.5794C28.6893 24.5627 28.6506 24.5383 28.6189 24.5077L18.6413 15.8604Z" fill="white"/>
<path d="M29.3328 6.59421L19.3759 15.2235L29.3483 23.8752C29.3786 23.902 29.4047 23.9322 29.4259 23.9649C29.8023 23.5138 30.0033 22.9706 30 22.4139V8.06904C30.0014 7.50566 29.7968 6.95639 29.4155 6.50008C29.3939 6.53506 29.3659 6.56684 29.3328 6.59421Z" fill="white"/>
<path d="M4.02935 5.02559L0.667286 2.11179C0.634107 2.08442 0.606171 2.05264 0.584527 2.01765C0.203274 2.47397 -0.00134528 3.02324 4.42689e-05 3.58662V17.9314C-0.00341333 18.4861 0.195751 19.0275 0.56901 19.478C0.590207 19.4453 0.616294 19.4151 0.646596 19.3883L2.06901 18.1556V8.06938C2.06888 6.82873 2.81084 5.67671 4.02935 5.02559Z" fill="white"/>
<path d="M1.26758 20.0967C1.51098 20.2548 1.78151 20.3789 2.0693 20.4643V19.4288L1.38137 20.025C1.34694 20.0528 1.30873 20.0769 1.26758 20.0967Z" fill="white"/>
<path d="M3.10344 0.896643C2.45338 0.895439 1.81961 1.07278 1.29309 1.40319C1.33346 1.42195 1.37013 1.44616 1.40171 1.47492L5.04309 4.63078C5.42028 4.53122 5.81259 4.48135 6.20688 4.48285H22.0241L25.4948 1.47492C25.5264 1.44616 25.5631 1.42195 25.6034 1.40319C25.0769 1.07278 24.4431 0.895439 23.7931 0.896643H3.10344Z" fill="white"/>
<path d="M26.2294 2.11179L23.4932 4.48317H26.8966L26.8966 3.58662C26.898 3.02324 26.6934 2.47397 26.3121 2.01765C26.2905 2.05264 26.2625 2.08442 26.2294 2.11179Z" fill="white"/>
</g>
<defs>
<clipPath id="clip0_4_51">
<rect width="30" height="26" fill="white"/>
</clipPath>
</defs>
</svg>
